# Blender 4.2.1 LTS
# www.blender.org
mtllib racetrack.mtl
o Finish
v -62.679916 -1.000000 -13080.268555
v -62.679916 1.000000 -13080.268555
v -62.473389 -1.000000 -13082.257812
v -62.473389 1.000000 -13082.257812
v -59.497025 -1.000000 -13079.937500
v -59.497025 1.000000 -13079.937500
v -59.290497 -1.000000 -13081.926758
v -59.290497 1.000000 -13081.926758
vn -0.9947 -0.0000 -0.1033
vn 0.1033 -0.0000 -0.9947
vn 0.9947 -0.0000 0.1033
vn -0.1033 -0.0000 0.9947
vn -0.0000 -1.0000 -0.0000
vn -0.0000 1.0000 -0.0000
vt 0.375000 0.000000
vt 0.625000 0.000000
vt 0.625000 0.250000
vt 0.375000 0.250000
vt 0.625000 0.500000
vt 0.375000 0.500000
vt 0.625000 0.750000
vt 0.375000 0.750000
vt 0.625000 1.000000
vt 0.375000 1.000000
vt 0.125000 0.500000
vt 0.125000 0.750000
vt 0.875000 0.500000
vt 0.875000 0.750000
s 0
f 1/1/1 2/2/1 4/3/1 3/4/1
f 3/4/2 4/3/2 8/5/2 7/6/2
f 7/6/3 8/5/3 6/7/3 5/8/3
f 5/8/4 6/7/4 2/9/4 1/10/4
f 3/11/5 7/6/5 5/8/5 1/12/5
f 8/5/6 4/13/6 2/14/6 6/7/6
o Start
v -1.600000 -1.000000 1.000000
v -1.600000 1.000000 1.000000
v -1.600000 -1.000000 -1.000000
v -1.600000 1.000000 -1.000000
v 1.600000 -1.000000 1.000000
v 1.600000 1.000000 1.000000
v 1.600000 -1.000000 -1.000000
v 1.600000 1.000000 -1.000000
vn -1.0000 -0.0000 -0.0000
vn -0.0000 -0.0000 -1.0000
vn 1.0000 -0.0000 -0.0000
vn -0.0000 -0.0000 1.0000
vn -0.0000 -1.0000 -0.0000
vn -0.0000 1.0000 -0.0000
vt 0.375000 0.000000
vt 0.625000 0.000000
vt 0.625000 0.250000
vt 0.375000 0.250000
vt 0.625000 0.500000
vt 0.375000 0.500000
vt 0.625000 0.750000
vt 0.375000 0.750000
vt 0.625000 1.000000
vt 0.375000 1.000000
vt 0.125000 0.500000
vt 0.125000 0.750000
vt 0.875000 0.500000
vt 0.875000 0.750000
s 0
f 9/15/7 10/16/7 12/17/7 11/18/7
f 11/18/8 12/17/8 16/19/8 15/20/8
f 15/20/9 16/19/9 14/21/9 13/22/9
f 13/22/10 14/21/10 10/23/10 9/24/10
f 11/25/11 15/20/11 13/22/11 9/26/11
f 16/19/12 12/27/12 10/28/12 14/21/12
o Plane.004
v -5.000000 0.000000 100.000000
v 5.000000 0.000000 100.000000
v -5.000000 0.000000 -100.000000
v 5.000000 0.000000 -100.000000
v -5.000000 0.000000 -98.019806
v -5.000000 0.000000 -96.039604
v -5.000000 0.000000 -94.059410
v -5.000000 0.000000 -92.079208
v -5.000000 0.000000 -90.099014
v -5.000000 0.000000 -88.118813
v -5.000000 0.000000 -86.138618
v -5.000000 0.000000 -84.158417
v -5.000000 0.000000 -82.178223
v -5.000000 0.000000 -80.198029
v -5.000000 0.000000 -78.217827
v -5.000000 0.000000 -76.237633
v -5.000000 0.000000 -74.257431
v -5.000000 0.000000 -72.277237
v -5.000000 0.000000 -70.297035
v -5.000000 0.000000 -68.316841
v -5.000000 0.000000 -66.336647
v -5.000000 0.000000 -64.356445
v -5.000000 0.000000 -62.376247
v -5.000000 0.000000 -60.396049
v -5.000000 0.000000 -58.415855
v -5.000000 0.000000 -56.435658
v -5.000000 0.000000 -54.455460
v -5.000000 0.000000 -52.475262
v -5.000000 0.000000 -50.495064
v -5.000000 0.000000 -48.514866
v -5.000000 0.000000 -46.534668
v -5.000000 0.000000 -44.554474
v -5.000000 0.000000 -42.574276
v -5.000000 0.000000 -40.594078
v -5.000000 0.000000 -38.613880
v -5.000000 0.000000 -36.633682
v -5.000000 0.000000 -34.653484
v -5.000000 0.000000 -32.673286
v -5.000000 0.000000 -30.693090
v -5.000000 0.000000 -28.712893
v -5.000000 0.000000 -26.732695
v -5.000000 0.000000 -24.752497
v -5.000000 0.000000 -22.772297
v -5.000000 0.000000 -20.792099
v -5.000000 0.000000 -18.811899
v -5.000000 0.000000 -16.831701
v -5.000000 0.000000 -14.851501
v -5.000000 0.000000 -12.871305
v -5.000000 0.000000 -10.891106
v -5.000000 0.000000 -8.910908
v -5.000000 0.000000 -6.930710
v -5.000000 0.000000 -4.950511
v -5.000000 0.000000 -2.970313
v -5.000000 0.000000 -0.990115
v -5.000000 0.000000 0.990084
v -5.000000 0.000000 2.970282
v -5.000000 0.000000 4.950480
v -5.000000 0.000000 6.930678
v -5.000000 0.000000 8.910876
v -5.000000 0.000000 10.891075
v -5.000000 0.000000 12.871273
v -5.000000 0.000000 14.851472
v -5.000000 0.000000 16.831669
v -5.000000 0.000000 18.811869
v -5.000000 0.000000 20.792067
v -5.000000 0.000000 22.772266
v -5.000000 0.000000 24.752464
v -5.000000 0.000000 26.732662
v -5.000000 0.000000 28.712860
v -5.000000 0.000000 30.693058
v -5.000000 0.000000 32.673256
v -5.000000 0.000000 34.653454
v -5.000000 0.000000 36.633648
v -5.000000 0.000000 38.613846
v -5.000000 0.000000 40.594044
v -5.000000 0.000000 42.574242
v -5.000000 0.000000 44.554440
v -5.000000 0.000000 46.534637
v -5.000000 0.000000 48.514835
v -5.000000 0.000000 50.495033
v -5.000000 0.000000 52.475231
v -5.000000 0.000000 54.455429
v -5.000000 0.000000 56.435627
v -5.000000 0.000000 58.415825
v -5.000000 0.000000 60.396023
v -5.000000 0.000000 62.376221
v -5.000000 0.000000 64.356415
v -5.000000 0.000000 66.336617
v -5.000000 0.000000 68.316811
v -5.000000 0.000000 70.297012
v -5.000000 0.000000 72.277206
v -5.000000 0.000000 74.257401
v -5.000000 0.000000 76.237602
v -5.000000 0.000000 78.217796
v -5.000000 0.000000 80.197998
v -5.000000 0.000000 82.178200
v -5.000000 0.000000 84.158394
v -5.000000 0.000000 86.138596
v -5.000000 0.000000 88.118797
v -5.000000 0.000000 90.098999
v -5.000000 0.000000 92.079201
v -5.000000 0.000000 94.059395
v -5.000000 0.000000 96.039597
v -5.000000 0.000000 98.019806
v 5.000000 0.000000 98.019806
v 5.000000 0.000000 96.039604
v 5.000000 0.000000 94.059410
v 5.000000 0.000000 92.079208
v 5.000000 0.000000 90.099014
v 5.000000 0.000000 88.118813
v 5.000000 0.000000 86.138618
v 5.000000 0.000000 84.158417
v 5.000000 0.000000 82.178223
v 5.000000 0.000000 80.198029
v 5.000000 0.000000 78.217827
v 5.000000 0.000000 76.237633
v 5.000000 0.000000 74.257431
v 5.000000 0.000000 72.277237
v 5.000000 0.000000 70.297035
v 5.000000 0.000000 68.316841
v 5.000000 0.000000 66.336647
v 5.000000 0.000000 64.356445
v 5.000000 0.000000 62.376247
v 5.000000 0.000000 60.396049
v 5.000000 0.000000 58.415855
v 5.000000 0.000000 56.435658
v 5.000000 0.000000 54.455460
v 5.000000 0.000000 52.475262
v 5.000000 0.000000 50.495064
v 5.000000 0.000000 48.514866
v 5.000000 0.000000 46.534668
v 5.000000 0.000000 44.554474
v 5.000000 0.000000 42.574276
v 5.000000 0.000000 40.594078
v 5.000000 0.000000 38.613880
v 5.000000 0.000000 36.633682
v 5.000000 0.000000 34.653484
v 5.000000 0.000000 32.673286
v 5.000000 0.000000 30.693090
v 5.000000 0.000000 28.712893
v 5.000000 0.000000 26.732695
v 5.000000 0.000000 24.752497
v 5.000000 0.000000 22.772297
v 5.000000 0.000000 20.792099
v 5.000000 0.000000 18.811899
v 5.000000 0.000000 16.831701
v 5.000000 0.000000 14.851501
v 5.000000 0.000000 12.871305
v 5.000000 0.000000 10.891106
v 5.000000 0.000000 8.910908
v 5.000000 0.000000 6.930710
v 5.000000 0.000000 4.950511
v 5.000000 0.000000 2.970313
v 5.000000 0.000000 0.990115
v 5.000000 0.000000 -0.990084
v 5.000000 0.000000 -2.970282
v 5.000000 0.000000 -4.950480
v 5.000000 0.000000 -6.930678
v 5.000000 0.000000 -8.910876
v 5.000000 0.000000 -10.891075
v 5.000000 0.000000 -12.871273
v 5.000000 0.000000 -14.851472
v 5.000000 0.000000 -16.831669
v 5.000000 0.040293 -18.811869
v 5.000000 0.267879 -20.792067
v 5.000000 0.671416 -22.772266
v 5.000000 1.222499 -24.752464
v 5.000000 1.892725 -26.732662
v 5.000000 2.653688 -28.712860
v 5.000000 3.476986 -30.693058
v 5.000000 4.334213 -32.673256
v 5.000000 5.196967 -34.653454
v 5.000000 6.036840 -36.633648
v 5.000000 6.825433 -38.613846
v 5.000000 7.534339 -40.594044
v 5.000000 8.135155 -42.574242
v 5.000000 8.599477 -44.554440
v 5.000000 8.898898 -46.534637
v 5.000000 9.005018 -48.514835
v 5.000000 8.898898 -50.495033
v 5.000000 8.599477 -52.475231
v 5.000000 8.135155 -54.455429
v 5.000000 7.534339 -56.435627
v 5.000000 6.825433 -58.415825
v 5.000000 6.036840 -60.396023
v 5.000000 5.196966 -62.376221
v 5.000000 4.334213 -64.356415
v 5.000000 3.476984 -66.336617
v 5.000000 2.653688 -68.316811
v 5.000000 1.892723 -70.297012
v 5.000000 1.222499 -72.277206
v 5.000000 0.671417 -74.257401
v 5.000000 0.267879 -76.237602
v 5.000000 0.040293 -78.217796
v 5.000000 0.000000 -80.197998
v 5.000000 0.000000 -82.178200
v 5.000000 0.000000 -84.158394
v 5.000000 0.000000 -86.138596
v 5.000000 0.000000 -88.118797
v 5.000000 0.000000 -90.098999
v 5.000000 0.000000 -92.079201
v 5.000000 0.000000 -94.059395
v 5.000000 0.000000 -96.039597
v 5.000000 0.000000 -98.019806
vn -0.0000 1.0000 -0.0000
vn -0.0010 1.0000 -0.0051
vn -0.0087 0.9994 -0.0338
vn -0.0310 0.9964 -0.0793
vn -0.0701 0.9904 -0.1193
vn -0.1227 0.9809 -0.1512
vn -0.1850 0.9671 -0.1747
vn -0.2528 0.9487 -0.1897
vn -0.3223 0.9261 -0.1964
vn -0.3896 0.9000 -0.1954
vn -0.4521 0.8720 -0.1875
vn -0.5078 0.8438 -0.1736
vn -0.5555 0.8170 -0.1546
vn -0.5949 0.7930 -0.1313
vn -0.6259 0.7729 -0.1041
vn -0.6484 0.7578 -0.0732
vn -0.6623 0.7483 -0.0384
vn -0.6670 0.7451 -0.0000
vn -0.6623 0.7483 0.0384
vn -0.6484 0.7578 0.0732
vn -0.6259 0.7729 0.1041
vn -0.5949 0.7930 0.1313
vn -0.5555 0.8170 0.1546
vn -0.5078 0.8438 0.1736
vn -0.4521 0.8720 0.1875
vn -0.3896 0.9000 0.1954
vn -0.3223 0.9261 0.1964
vn -0.2528 0.9487 0.1897
vn -0.1850 0.9671 0.1747
vn -0.1227 0.9809 0.1512
vn -0.0701 0.9904 0.1193
vn -0.0310 0.9964 0.0793
vn -0.0087 0.9994 0.0338
vn -0.0010 1.0000 0.0051
vn -0.0311 0.9964 0.0794
vn -0.0703 0.9903 0.1195
vn -0.1233 0.9807 0.1515
vn -0.1863 0.9668 0.1750
vn -0.2549 0.9481 0.1900
vn -0.3251 0.9250 0.1965
vn -0.3929 0.8986 0.1952
vn -0.4556 0.8704 0.1868
vn -0.5110 0.8421 0.1725
vn -0.5583 0.8153 0.1532
vn -0.5971 0.7916 0.1297
vn -0.6273 0.7720 0.1026
vn -0.6491 0.7573 0.0719
vn -0.6625 0.7482 0.0376
vn -0.6625 0.7482 -0.0376
vn -0.6491 0.7573 -0.0719
vn -0.6273 0.7720 -0.1026
vn -0.5971 0.7916 -0.1297
vn -0.5583 0.8153 -0.1532
vn -0.5110 0.8421 -0.1725
vn -0.4556 0.8704 -0.1868
vn -0.3929 0.8986 -0.1952
vn -0.3251 0.9250 -0.1965
vn -0.2549 0.9481 -0.1900
vn -0.1863 0.9668 -0.1750
vn -0.1233 0.9807 -0.1515
vn -0.0703 0.9903 -0.1195
vn -0.0311 0.9964 -0.0794
vt 0.000000 0.990099
vt 1.000000 0.990099
vt 1.000000 1.000000
vt 0.000000 1.000000
vt 0.000000 0.000000
vt 1.000000 0.000000
vt 1.000000 0.009901
vt 0.000000 0.009901
vt 1.000000 0.019802
vt 0.000000 0.019802
vt 1.000000 0.029703
vt 0.000000 0.029703
vt 1.000000 0.039604
vt 0.000000 0.039604
vt 1.000000 0.049505
vt 0.000000 0.049505
vt 1.000000 0.059406
vt 0.000000 0.059406
vt 1.000000 0.069307
vt 0.000000 0.069307
vt 1.000000 0.079208
vt 0.000000 0.079208
vt 1.000000 0.089109
vt 0.000000 0.089109
vt 1.000000 0.099010
vt 0.000000 0.099010
vt 1.000000 0.108911
vt 0.000000 0.108911
vt 1.000000 0.118812
vt 0.000000 0.118812
vt 1.000000 0.128713
vt 0.000000 0.128713
vt 1.000000 0.138614
vt 0.000000 0.138614
vt 1.000000 0.148515
vt 0.000000 0.148515
vt 1.000000 0.158416
vt 0.000000 0.158416
vt 1.000000 0.168317
vt 0.000000 0.168317
vt 1.000000 0.178218
vt 0.000000 0.178218
vt 1.000000 0.188119
vt 0.000000 0.188119
vt 1.000000 0.198020
vt 0.000000 0.198020
vt 1.000000 0.207921
vt 0.000000 0.207921
vt 1.000000 0.217822
vt 0.000000 0.217822
vt 1.000000 0.227723
vt 0.000000 0.227723
vt 1.000000 0.237624
vt 0.000000 0.237624
vt 1.000000 0.247525
vt 0.000000 0.247525
vt 1.000000 0.257426
vt 0.000000 0.257426
vt 1.000000 0.267327
vt 0.000000 0.267327
vt 1.000000 0.277228
vt 0.000000 0.277228
vt 1.000000 0.287129
vt 0.000000 0.287129
vt 1.000000 0.297030
vt 0.000000 0.297030
vt 1.000000 0.306931
vt 0.000000 0.306931
vt 1.000000 0.316832
vt 0.000000 0.316832
vt 1.000000 0.326733
vt 0.000000 0.326733
vt 1.000000 0.336634
vt 0.000000 0.336634
vt 1.000000 0.346535
vt 0.000000 0.346535
vt 1.000000 0.356436
vt 0.000000 0.356436
vt 1.000000 0.366337
vt 0.000000 0.366337
vt 1.000000 0.376238
vt 0.000000 0.376238
vt 1.000000 0.386139
vt 0.000000 0.386139
vt 1.000000 0.396040
vt 0.000000 0.396040
vt 1.000000 0.405941
vt 0.000000 0.405941
vt 1.000000 0.415842
vt 0.000000 0.415842
vt 1.000000 0.425743
vt 0.000000 0.425743
vt 1.000000 0.435644
vt 0.000000 0.435644
vt 1.000000 0.445545
vt 0.000000 0.445545
vt 1.000000 0.455446
vt 0.000000 0.455446
vt 1.000000 0.465347
vt 0.000000 0.465347
vt 1.000000 0.475248
vt 0.000000 0.475248
vt 1.000000 0.485149
vt 0.000000 0.485149
vt 1.000000 0.495050
vt 0.000000 0.495050
vt 1.000000 0.504951
vt 0.000000 0.504951
vt 1.000000 0.514852
vt 0.000000 0.514852
vt 1.000000 0.524752
vt 0.000000 0.524753
vt 1.000000 0.534654
vt 0.000000 0.534654
vt 1.000000 0.544554
vt 0.000000 0.544555
vt 1.000000 0.554456
vt 0.000000 0.554456
vt 1.000000 0.564356
vt 0.000000 0.564357
vt 1.000000 0.574257
vt 0.000000 0.574257
vt 1.000000 0.584158
vt 0.000000 0.584159
vt 1.000000 0.594059
vt 0.000000 0.594059
vt 1.000000 0.603960
vt 0.000000 0.603961
vt 1.000000 0.613861
vt 0.000000 0.613861
vt 1.000000 0.623762
vt 0.000000 0.623762
vt 1.000000 0.633663
vt 0.000000 0.633663
vt 1.000000 0.643564
vt 0.000000 0.643564
vt 1.000000 0.653465
vt 0.000000 0.653465
vt 1.000000 0.663366
vt 0.000000 0.663366
vt 1.000000 0.673267
vt 0.000000 0.673267
vt 1.000000 0.683168
vt 0.000000 0.683168
vt 1.000000 0.693069
vt 0.000000 0.693069
vt 1.000000 0.702970
vt 0.000000 0.702970
vt 1.000000 0.712871
vt 0.000000 0.712871
vt 1.000000 0.722772
vt 0.000000 0.722772
vt 1.000000 0.732673
vt 0.000000 0.732673
vt 1.000000 0.742574
vt 0.000000 0.742574
vt 1.000000 0.752475
vt 0.000000 0.752475
vt 1.000000 0.762376
vt 0.000000 0.762376
vt 1.000000 0.772277
vt 0.000000 0.772277
vt 1.000000 0.782178
vt 0.000000 0.782178
vt 1.000000 0.792079
vt 0.000000 0.792079
vt 1.000000 0.801980
vt 0.000000 0.801980
vt 1.000000 0.811881
vt 0.000000 0.811881
vt 1.000000 0.821782
vt 0.000000 0.821782
vt 1.000000 0.831683
vt 0.000000 0.831683
vt 1.000000 0.841584
vt 0.000000 0.841584
vt 1.000000 0.851485
vt 0.000000 0.851485
vt 1.000000 0.861386
vt 0.000000 0.861386
vt 1.000000 0.871287
vt 0.000000 0.871287
vt 1.000000 0.881188
vt 0.000000 0.881188
vt 1.000000 0.891089
vt 0.000000 0.891089
vt 1.000000 0.900990
vt 0.000000 0.900990
vt 1.000000 0.910891
vt 0.000000 0.910891
vt 1.000000 0.920792
vt 0.000000 0.920792
vt 1.000000 0.930693
vt 0.000000 0.930693
vt 1.000000 0.940594
vt 0.000000 0.940594
vt 1.000000 0.950495
vt 0.000000 0.950495
vt 1.000000 0.960396
vt 0.000000 0.960396
vt 1.000000 0.970297
vt 0.000000 0.970297
vt 1.000000 0.980198
vt 0.000000 0.980198
s 1
f 21/29/13 220/30/13 20/31/13 19/32/13
f 17/33/13 18/34/13 121/35/13 120/36/13
f 120/36/13 121/35/13 122/37/13 119/38/13
f 119/38/13 122/37/13 123/39/13 118/40/13
f 118/40/13 123/39/13 124/41/13 117/42/13
f 117/42/13 124/41/13 125/43/13 116/44/13
f 116/44/13 125/43/13 126/45/13 115/46/13
f 115/46/13 126/45/13 127/47/13 114/48/13
f 114/48/13 127/47/13 128/49/13 113/50/13
f 113/50/13 128/49/13 129/51/13 112/52/13
f 112/52/13 129/51/13 130/53/13 111/54/13
f 111/54/13 130/53/13 131/55/13 110/56/13
f 110/56/13 131/55/13 132/57/13 109/58/13
f 109/58/13 132/57/13 133/59/13 108/60/13
f 108/60/13 133/59/13 134/61/13 107/62/13
f 107/62/13 134/61/13 135/63/13 106/64/13
f 106/64/13 135/63/13 136/65/13 105/66/13
f 105/66/13 136/65/13 137/67/13 104/68/13
f 104/68/13 137/67/13 138/69/13 103/70/13
f 103/70/13 138/69/13 139/71/13 102/72/13
f 102/72/13 139/71/13 140/73/13 101/74/13
f 101/74/13 140/73/13 141/75/13 100/76/13
f 100/76/13 141/75/13 142/77/13 99/78/13
f 99/78/13 142/77/13 143/79/13 98/80/13
f 98/80/13 143/79/13 144/81/13 97/82/13
f 97/82/13 144/81/13 145/83/13 96/84/13
f 96/84/13 145/83/13 146/85/13 95/86/13
f 95/86/13 146/85/13 147/87/13 94/88/13
f 94/88/13 147/87/13 148/89/13 93/90/13
f 93/90/13 148/89/13 149/91/13 92/92/13
f 92/92/13 149/91/13 150/93/13 91/94/13
f 91/94/13 150/93/13 151/95/13 90/96/13
f 90/96/13 151/95/13 152/97/13 89/98/13
f 89/98/13 152/97/13 153/99/13 88/100/13
f 88/100/13 153/99/13 154/101/13 87/102/13
f 87/102/13 154/101/13 155/103/13 86/104/13
f 86/104/13 155/103/13 156/105/13 85/106/13
f 85/106/13 156/105/13 157/107/13 84/108/13
f 84/108/13 157/107/13 158/109/13 83/110/13
f 83/110/13 158/109/13 159/111/13 82/112/13
f 82/112/13 159/111/13 160/113/13 81/114/13
f 81/114/13 160/113/13 161/115/13 80/116/13
f 80/116/13 161/115/13 162/117/13 79/118/13
f 79/118/13 162/117/13 163/119/13 78/120/13
f 78/120/13 163/119/13 164/121/13 77/122/13
f 77/122/13 164/121/13 165/123/13 76/124/13
f 76/124/13 165/123/13 166/125/13 75/126/13
f 75/126/13 166/125/13 167/127/13 74/128/13
f 74/128/13 167/127/13 168/129/13 73/130/13
f 73/130/13 168/129/13 169/131/13 72/132/13
f 72/132/13 169/131/13 170/133/13 71/134/13
f 71/134/13 170/133/13 171/135/13 70/136/13
f 70/136/13 171/135/13 172/137/13 69/138/13
f 69/138/13 172/137/13 173/139/13 68/140/13
f 68/140/13 173/139/13 174/141/13 67/142/13
f 67/142/13 174/141/13 175/143/13 66/144/13
f 66/144/13 175/143/13 176/145/13 65/146/13
f 65/146/13 176/145/13 177/147/13 64/148/13
f 64/148/13 177/147/13 178/149/13 63/150/13
f 63/150/13 178/149/13 179/151/46 62/152/46
f 62/152/46 179/151/46 180/153/45 61/154/45
f 61/154/45 180/153/45 181/155/47 60/156/44
f 60/156/44 181/155/47 182/157/48 59/158/43
f 59/158/43 182/157/48 183/159/49 58/160/42
f 58/160/42 183/159/49 184/161/50 57/162/41
f 57/162/41 184/161/50 185/163/51 56/164/40
f 56/164/40 185/163/51 186/165/52 55/166/39
f 55/166/39 186/165/52 187/167/53 54/168/38
f 54/168/38 187/167/53 188/169/54 53/170/37
f 53/170/37 188/169/54 189/171/55 52/172/36
f 52/172/36 189/171/55 190/173/56 51/174/35
f 51/174/35 190/173/56 191/175/57 50/176/34
f 50/176/34 191/175/57 192/177/58 49/178/33
f 49/178/33 192/177/58 193/179/59 48/180/32
f 48/180/32 193/179/59 194/181/60 47/182/31
f 47/182/31 194/181/60 195/183/30 46/184/30
f 46/184/30 195/183/30 196/185/61 45/186/29
f 45/186/29 196/185/61 197/187/62 44/188/28
f 44/188/28 197/187/62 198/189/63 43/190/27
f 43/190/27 198/189/63 199/191/64 42/192/26
f 42/192/26 199/191/64 200/193/65 41/194/25
f 41/194/25 200/193/65 201/195/66 40/196/24
f 40/196/24 201/195/66 202/197/67 39/198/23
f 39/198/23 202/197/67 203/199/68 38/200/22
f 38/200/22 203/199/68 204/201/69 37/202/21
f 37/202/21 204/201/69 205/203/70 36/204/20
f 36/204/20 205/203/70 206/205/71 35/206/19
f 35/206/19 206/205/71 207/207/72 34/208/18
f 34/208/18 207/207/72 208/209/73 33/210/17
f 33/210/17 208/209/73 209/211/74 32/212/16
f 32/212/16 209/211/74 210/213/15 31/214/15
f 31/214/15 210/213/15 211/215/14 30/216/14
f 30/216/14 211/215/14 212/217/13 29/218/13
f 29/218/13 212/217/13 213/219/13 28/220/13
f 28/220/13 213/219/13 214/221/13 27/222/13
f 27/222/13 214/221/13 215/223/13 26/224/13
f 26/224/13 215/223/13 216/225/13 25/226/13
f 25/226/13 216/225/13 217/227/13 24/228/13
f 24/228/13 217/227/13 218/229/13 23/230/13
f 23/230/13 218/229/13 219/231/13 22/232/13
f 22/232/13 219/231/13 220/30/13 21/29/13
